<svg width="106" height="34" viewBox="0 0 106 34" fill="none" xmlns="http://www.w3.org/2000/svg">
<path d="M1 26.9576V10.1186C1.00136 7.6997 1.96321 5.38037 3.67409 3.67046C5.38497 1.96054 7.70484 1 10.1237 1H95.3983C97.8172 1 100.137 1.96054 101.848 3.67046C103.559 5.38037 104.521 7.6997 104.522 10.1186V26.9576" fill="white"></path>
<path d="M1 26.9576V10.1186C1.00136 7.6997 1.96321 5.38037 3.67409 3.67046C5.38497 1.96054 7.70484 1 10.1237 1H95.3983C97.8172 1 100.137 1.96054 101.848 3.67046C103.559 5.38037 104.521 7.6997 104.522 10.1186V26.9576" stroke="#231815" stroke-miterlimit="10"></path>
<path d="M10.2314 21.843V8.88477H13.8295C16.1117 8.88477 17.8251 9.41077 18.9696 10.4628C20.1142 11.5148 20.6864 13.0945 20.6864 15.202C20.7239 16.0939 20.574 16.9838 20.2464 17.8142C19.9188 18.6446 19.4209 19.3972 18.7846 20.0234C17.5167 21.2365 15.8188 21.843 13.6907 21.843H10.2314ZM11.7478 10.2572V20.4706H13.6856C15.3818 20.4706 16.7029 20.0148 17.6486 19.1033C18.5944 18.1918 19.0673 16.9034 19.0673 15.238C19.0673 13.5726 18.627 12.3269 17.7463 11.5011C16.8622 10.6735 15.5412 10.2572 13.773 10.2572H11.7478Z" fill="black"></path>
<path d="M26.8547 22.0592C26.2537 22.0875 25.6534 21.9891 25.0929 21.7703C24.5324 21.5516 24.0241 21.2175 23.601 20.7896C22.7559 19.8494 22.3163 18.6136 22.3777 17.3509C22.3392 16.6917 22.4311 16.0315 22.6481 15.4079C22.865 14.7844 23.2028 14.2097 23.6421 13.7168C24.0948 13.2709 24.6351 12.9238 25.2287 12.6973C25.8224 12.4708 26.4565 12.3699 27.0912 12.4009C27.6901 12.3638 28.2898 12.4583 28.8484 12.6776C29.4069 12.8969 29.9107 13.2358 30.3243 13.6705C31.1378 14.6576 31.5506 15.9143 31.4808 17.1915C31.5447 18.4932 31.0963 19.7681 30.2318 20.7433C29.7948 21.1902 29.2676 21.5387 28.6852 21.7656C28.1029 21.9925 27.4788 22.0926 26.8547 22.0592V22.0592ZM26.9832 20.7896C27.3989 20.8152 27.8148 20.744 28.1983 20.5817C28.5818 20.4193 28.9225 20.1703 29.1935 19.8541C29.7522 19.091 30.0251 18.1559 29.9645 17.2121C30.0286 16.2559 29.7538 15.3078 29.1883 14.5341C28.9168 14.2198 28.5769 13.9721 28.1946 13.8099C27.8123 13.6477 27.3979 13.5754 26.9832 13.5986C26.5538 13.5842 26.1268 13.6691 25.7355 13.8465C25.3442 14.0239 24.999 14.2891 24.7267 14.6215C24.1353 15.3825 23.8395 16.332 23.894 17.2943C23.8398 18.2338 24.1386 19.1596 24.7318 19.8901C25.0182 20.1959 25.3684 20.435 25.7574 20.5904C26.1465 20.7459 26.565 20.8139 26.9832 20.7896V20.7896Z" fill="black"></path>
<path d="M40.3579 21.3035C39.9571 21.553 39.525 21.7483 39.0729 21.8844C38.6178 22.0114 38.1472 22.0737 37.6748 22.0694C37.0863 22.0908 36.4995 21.9945 35.9488 21.7862C35.398 21.5779 34.8944 21.2617 34.4673 20.8563C34.0334 20.4013 33.6983 19.8612 33.4834 19.2703C33.2684 18.6794 33.1781 18.0503 33.2183 17.4227C33.1586 16.0904 33.6089 14.7853 34.4776 13.7733C34.92 13.3047 35.459 12.9379 36.0572 12.6982C36.6554 12.4586 37.2985 12.3519 37.942 12.3854C38.4015 12.3832 38.8593 12.4402 39.3042 12.555C39.7627 12.6819 40.2019 12.8704 40.6098 13.1153L39.9878 14.1999C39.6639 14.0161 39.3186 13.8728 38.9598 13.7733C38.6055 13.6824 38.241 13.6375 37.8752 13.6396C37.4312 13.6141 36.9874 13.694 36.58 13.8726C36.1727 14.0513 35.8133 14.3237 35.5313 14.6676C34.974 15.4059 34.6873 16.3132 34.7192 17.2377C34.6584 18.2013 34.9713 19.1512 35.593 19.89C35.8759 20.1875 36.2188 20.4216 36.5989 20.5766C36.9791 20.7317 37.3878 20.8043 37.7981 20.7895C38.112 20.788 38.4238 20.7395 38.7233 20.6456C39.0686 20.5513 39.399 20.4095 39.7051 20.2241L40.3579 21.3035Z" fill="black"></path>
<path d="M49.8776 21.843H48.3972V20.3781H48.3612C48.0977 20.903 47.6885 21.3407 47.1825 21.6388C46.6765 21.9369 46.0953 22.0828 45.5085 22.0589C45.0469 22.0934 44.5836 22.0224 44.1535 21.8514C43.7234 21.6805 43.3378 21.4139 43.0258 21.072C42.4758 20.4192 42.1982 19.4323 42.1982 18.1216V12.5908H43.6735V17.8851C43.6168 18.6582 43.8135 19.4287 44.2337 20.08C44.4362 20.3247 44.6947 20.517 44.9873 20.6405C45.2799 20.764 45.598 20.815 45.9146 20.7893C46.2525 20.7983 46.5881 20.7313 46.8968 20.5935C47.2055 20.4556 47.4793 20.2503 47.6982 19.9926C48.1811 19.4053 48.4301 18.6602 48.3972 17.9006V12.5908H49.8776V21.843Z" fill="black"></path>
<path d="M66.0074 21.8431H64.5271V16.5282C64.5869 15.7573 64.4208 14.9856 64.0491 14.3076C63.8638 14.067 63.6203 13.8775 63.3415 13.757C63.0627 13.6365 62.7578 13.589 62.4556 13.6189C62.1365 13.6228 61.823 13.7038 61.542 13.8551C61.2609 14.0063 61.0207 14.2233 60.8416 14.4875C60.3969 15.0795 60.1634 15.8034 60.1785 16.5436V21.8431H58.7239V16.3483C58.7817 15.6252 58.6012 14.903 58.2099 14.2922C58.0205 14.0593 57.7776 13.8756 57.502 13.7565C57.2264 13.6375 56.9261 13.5868 56.6267 13.6086C56.3127 13.6063 56.0028 13.6793 55.7228 13.8215C55.4429 13.9637 55.2012 14.1709 55.0179 14.4259C54.5737 15.0439 54.3509 15.7936 54.3856 16.5539V21.8431H52.9053V12.5908H54.3856V14.0558H54.4216C54.7144 13.5382 55.1335 13.1032 55.6398 12.7913C56.1445 12.5073 56.716 12.3635 57.2949 12.375C57.8815 12.3603 58.4565 12.5398 58.9306 12.8856C59.4046 13.2314 59.7512 13.724 59.9164 14.2871C60.2107 13.704 60.654 13.2093 61.2014 12.853C61.7398 12.5262 62.3605 12.3603 62.9902 12.375C63.4179 12.3428 63.8472 12.4106 64.2442 12.573C64.6412 12.7354 64.9949 12.9878 65.2775 13.3105C65.7916 13.9376 66.0434 14.8833 66.0434 16.1427L66.0074 21.8431Z" fill="black"></path>
<path d="M76.2467 17.5513H69.7034C69.672 18.4306 69.973 19.2894 70.5464 19.9568C70.8336 20.243 71.1781 20.4651 71.5572 20.6086C71.9364 20.7521 72.3416 20.8138 72.7463 20.7895C73.1711 20.7881 73.5934 20.7258 74.0005 20.6045C74.4424 20.4685 74.8616 20.2676 75.2444 20.0082L75.9281 21.0671C75.4428 21.392 74.913 21.6448 74.3552 21.8176C73.7943 21.9811 73.2123 22.0608 72.6281 22.054C72.0248 22.0858 71.4217 21.9895 70.8582 21.7716C70.2948 21.5537 69.7839 21.219 69.359 20.7895C68.529 19.8285 68.1051 18.5826 68.1768 17.3148C68.1083 16.0108 68.5279 14.7281 69.3538 13.7167C69.7331 13.2732 70.2071 12.9206 70.7409 12.6848C71.2747 12.449 71.8547 12.3362 72.4379 12.3546C72.9636 12.325 73.4891 12.4157 73.9745 12.6196C74.4599 12.8236 74.8925 13.1355 75.2393 13.5317C75.964 14.4603 76.3291 15.6193 76.2673 16.7957L76.2467 17.5513ZM74.7047 16.3382C74.7441 15.6186 74.5234 14.9089 74.0828 14.3387C73.8733 14.0991 73.6124 13.9099 73.3196 13.7853C73.0267 13.6607 72.7095 13.6039 72.3917 13.6191C72.0584 13.6135 71.7275 13.6758 71.4191 13.8022C71.1107 13.9285 70.8313 14.1163 70.5978 14.3541C70.087 14.8979 69.7707 15.5956 69.6982 16.3382H74.7047Z" fill="black"></path>
<path d="M86.1666 21.8431H84.6811V16.5642C84.743 15.792 84.5634 15.0196 84.1671 14.354C83.9799 14.1075 83.7344 13.9113 83.4527 13.7831C83.171 13.6548 82.8619 13.5984 82.5531 13.6189C82.2032 13.6116 81.8561 13.6832 81.5376 13.8282C81.219 13.9732 80.9372 14.1881 80.7129 14.4568C80.2171 15.0444 79.9586 15.796 79.9882 16.5642V21.8431H78.5078V12.5909H79.9882V14.1329H80.0241C80.3298 13.591 80.7708 13.1377 81.304 12.8171C81.8392 12.5185 82.4441 12.3677 83.0568 12.3802C83.4932 12.3526 83.93 12.4264 84.3331 12.5958C84.7362 12.7652 85.0946 13.0257 85.3802 13.3568C85.9577 14.1738 86.2355 15.1651 86.1666 16.1633V21.8431Z" fill="black"></path>
<path d="M93.3683 21.735C92.8699 21.9412 92.3349 22.0443 91.7955 22.0383C91.4806 22.0544 91.1657 22.0058 90.8704 21.8952C90.5751 21.7847 90.3056 21.6147 90.0787 21.3958C89.6266 20.8655 89.4013 20.1787 89.4516 19.4837V13.8552H87.8633V12.5908H89.4516V10.3291L90.9319 9.85107V12.5908H93.2655V13.8552H90.9319V19.314C90.8985 19.7174 90.9997 20.1206 91.2198 20.4603C91.325 20.581 91.4569 20.6754 91.605 20.7361C91.7532 20.7968 91.9134 20.822 92.073 20.8098C92.2462 20.8094 92.4187 20.7887 92.5871 20.7481C92.7318 20.7136 92.8729 20.6654 93.0085 20.6042L93.3683 21.735Z" fill="black"></path>
<rect x="5" y="22" width="100" height="12" fill="white"></rect>
</svg>
