<svg width="106" height="34" fill="none" xmlns="http://www.w3.org/2000/svg"><path d="M1 26.958v-16.84A9.124 9.124 0 0 1 10.124 1h85.274a9.124 9.124 0 0 1 9.124 9.119v16.839" fill="#fff"/><path d="M1 26.958v-16.84A9.124 9.124 0 0 1 10.124 1h85.274a9.124 9.124 0 0 1 9.124 9.119v16.839" stroke="#231815" stroke-miterlimit="10"/><path d="M10.231 21.843V8.885h3.598c2.283 0 3.996.526 5.14 1.578 1.145 1.052 1.717 2.632 1.717 4.739a6.387 6.387 0 0 1-1.901 4.821c-1.268 1.213-2.966 1.82-5.094 1.82h-3.46Zm1.517-11.586v10.214h1.938c1.696 0 3.017-.456 3.963-1.368.945-.911 1.418-2.2 1.418-3.865s-.44-2.911-1.32-3.737c-.885-.827-2.206-1.244-3.974-1.244h-2.025ZM26.855 22.06a4.29 4.29 0 0 1-3.254-1.27 4.795 4.795 0 0 1-1.223-3.44 5.021 5.021 0 0 1 1.264-3.633 4.596 4.596 0 0 1 3.45-1.316 4.113 4.113 0 0 1 3.232 1.27 5.099 5.099 0 0 1 1.157 3.52 4.986 4.986 0 0 1-1.25 3.552 4.394 4.394 0 0 1-3.376 1.316Zm.128-1.27a2.693 2.693 0 0 0 2.21-.936 4.035 4.035 0 0 0 .771-2.642 4.076 4.076 0 0 0-.776-2.678 2.713 2.713 0 0 0-2.205-.935 2.795 2.795 0 0 0-2.256 1.022 3.988 3.988 0 0 0-.833 2.673c-.054.94.245 1.866.838 2.596a2.858 2.858 0 0 0 2.251.9ZM40.358 21.303c-.4.25-.833.445-1.285.581a5.03 5.03 0 0 1-1.398.185 4.424 4.424 0 0 1-3.208-1.213 4.553 4.553 0 0 1-1.249-3.433 5.243 5.243 0 0 1 1.26-3.65 4.447 4.447 0 0 1 3.464-1.388 5.35 5.35 0 0 1 1.362.17c.459.127.898.315 1.306.56l-.622 1.085a4.543 4.543 0 0 0-1.028-.427 4.266 4.266 0 0 0-1.085-.133 2.823 2.823 0 0 0-2.344 1.028 4.035 4.035 0 0 0-.812 2.57c-.06.963.252 1.913.874 2.652a2.899 2.899 0 0 0 2.205.9c.314-.002.626-.05.925-.144.346-.095.676-.236.982-.422l.653 1.08ZM49.878 21.843h-1.48v-1.465h-.037a3.053 3.053 0 0 1-2.852 1.68 3.052 3.052 0 0 1-2.483-.986c-.55-.653-.828-1.64-.828-2.95V12.59h1.475v5.294c-.056.773.14 1.544.56 2.195a1.975 1.975 0 0 0 1.682.71 2.262 2.262 0 0 0 1.783-.797 3.084 3.084 0 0 0 .7-2.092v-5.31h1.48v9.252ZM66.007 21.843h-1.48v-5.315a3.98 3.98 0 0 0-.478-2.22 1.789 1.789 0 0 0-1.593-.69 1.978 1.978 0 0 0-1.614.87 3.311 3.311 0 0 0-.663 2.056v5.3h-1.455v-5.496a3.321 3.321 0 0 0-.514-2.056 1.867 1.867 0 0 0-1.583-.683 1.964 1.964 0 0 0-1.61.817 3.382 3.382 0 0 0-.631 2.128v5.29h-1.48V12.59h1.48v1.465h.036a3.522 3.522 0 0 1 1.218-1.265 3.244 3.244 0 0 1 1.655-.416 2.663 2.663 0 0 1 2.621 1.912 3.7 3.7 0 0 1 1.285-1.434 3.299 3.299 0 0 1 1.79-.478 2.764 2.764 0 0 1 2.287.935c.514.628.765 1.573.765 2.833l-.036 5.7ZM76.247 17.551h-6.544a3.5 3.5 0 0 0 .843 2.406 2.873 2.873 0 0 0 2.2.832 4.443 4.443 0 0 0 1.255-.184 4.661 4.661 0 0 0 1.243-.597l.684 1.06a6.04 6.04 0 0 1-1.573.75 5.925 5.925 0 0 1-1.727.236 4.282 4.282 0 0 1-3.269-1.264 4.893 4.893 0 0 1-1.182-3.475 5.253 5.253 0 0 1 1.177-3.598 3.897 3.897 0 0 1 3.084-1.362 3.465 3.465 0 0 1 2.801 1.177 4.888 4.888 0 0 1 1.028 3.264l-.02.755Zm-1.542-1.213c.04-.72-.182-1.43-.622-2a2.113 2.113 0 0 0-1.691-.719 2.456 2.456 0 0 0-1.794.735 3.377 3.377 0 0 0-.9 1.984h5.007ZM86.167 21.843H84.68v-5.279a3.737 3.737 0 0 0-.514-2.21 1.87 1.87 0 0 0-1.614-.735 2.334 2.334 0 0 0-1.84.838 3.084 3.084 0 0 0-.725 2.107v5.28h-1.48V12.59h1.48v1.542h.036a3.598 3.598 0 0 1 1.28-1.316 3.453 3.453 0 0 1 1.753-.437 2.833 2.833 0 0 1 2.323.977c.578.817.856 1.808.787 2.806v5.68ZM93.368 21.735a3.998 3.998 0 0 1-1.572.303 2.302 2.302 0 0 1-1.717-.642 2.652 2.652 0 0 1-.627-1.912v-5.629h-1.589v-1.264h1.589v-2.262l1.48-.478v2.74h2.334v1.264h-2.334v5.459a1.83 1.83 0 0 0 .288 1.146 1.028 1.028 0 0 0 .853.35 2.348 2.348 0 0 0 .936-.206l.36 1.131Z" fill="#000"/><path fill="#fff" d="M5 22h100v12H5z"/></svg>