<svg width="60" height="60" fill="none" xmlns="http://www.w3.org/2000/svg"><path d="M35 47.5c9.428 0 14.142 0 17.07-2.93C55 41.642 55 36.928 55 27.5c0-9.427 0-14.143-2.93-17.07C49.142 7.5 44.428 7.5 35 7.5H25c-9.428 0-14.143 0-17.07 2.93C5 13.358 5 18.073 5 27.5c0 9.428 0 14.142 2.93 17.07 1.633 1.635 3.82 2.358 7.07 2.675" stroke="#fff" stroke-width="5" stroke-linecap="round" stroke-linejoin="round"/><path d="M38.017 16.983a2.5 2.5 0 0 0-3.545.007L23.097 28.483a5 5 0 0 0-1.35 2.537l-.45 2.24a2.5 2.5 0 0 0 2.943 2.943l2.24-.45a5 5 0 0 0 2.537-1.35L40.51 23.028a2.5 2.5 0 0 0 .007-3.545l-2.5-2.5v0Z" stroke="#fff" stroke-width="5" stroke-linecap="round" stroke-linejoin="round"/><path d="m31.25 23.75 2.5 2.5" stroke="#fff" stroke-width="5"/><path d="M35 47.5c-3.09 0-6.495 1.25-9.602 2.862-4.995 2.593-7.493 3.89-8.723 3.063-1.23-.825-.997-3.387-.53-8.51l.105-1.165" stroke="#fff" stroke-width="5" stroke-linecap="round"/></svg>