<svg width="60" height="60" viewBox="0 0 60 60" fill="none" xmlns="http://www.w3.org/2000/svg">
<path d="M35 47.5C44.4275 47.5 49.1425 47.5 52.07 44.57C55 41.6425 55 36.9275 55 27.5C55 18.0725 55 13.3575 52.07 10.43C49.1425 7.5 44.4275 7.5 35 7.5H25C15.5725 7.5 10.8575 7.5 7.93 10.43C5 13.3575 5 18.0725 5 27.5C5 36.9275 5 41.6425 7.93 44.57C9.5625 46.205 11.75 46.9275 15 47.245" stroke="white" stroke-width="5" stroke-linecap="round" stroke-linejoin="round"></path>
<path d="M38.0173 16.9825C37.7845 16.7494 37.5079 16.5647 37.2034 16.4388C36.899 16.313 36.5726 16.2486 36.2432 16.2493C35.9138 16.25 35.5877 16.3158 35.2838 16.4429C34.9799 16.57 34.7041 16.7559 34.4723 16.99L23.0973 28.4825C22.4086 29.178 21.9392 30.0603 21.7473 31.02L21.2973 33.26C21.2164 33.6637 21.2364 34.0812 21.3557 34.4752C21.4749 34.8693 21.6896 35.2279 21.9808 35.519C22.2719 35.8101 22.6304 36.0249 23.0245 36.1441C23.4186 36.2634 23.8361 36.2834 24.2398 36.2025L26.4798 35.7525C27.4395 35.5606 28.3218 35.0912 29.0173 34.4025L40.5098 23.0275C40.7438 22.7957 40.9298 22.5199 41.0569 22.216C41.184 21.912 41.2498 21.586 41.2505 21.2566C41.2512 20.9271 41.1868 20.6008 41.061 20.2964C40.9351 19.9919 40.7504 19.7153 40.5173 19.4825L38.0173 16.9825V16.9825Z" stroke="white" stroke-width="5" stroke-linecap="round" stroke-linejoin="round"></path>
<path d="M31.25 23.75L33.75 26.25" stroke="white" stroke-width="5"></path>
<path d="M35.0001 47.5C31.9101 47.5 28.5051 48.75 25.3976 50.3625C20.4026 52.955 17.9051 54.2525 16.6751 53.425C15.4451 52.6 15.6776 50.0375 16.1451 44.915L16.2501 43.75" stroke="white" stroke-width="5" stroke-linecap="round"></path>
</svg>
