<svg width="60" height="60" viewBox="0 0 60 60" fill="none" xmlns="http://www.w3.org/2000/svg">
<path d="M28.125 33.9844H21.7969C21.6726 33.9844 21.5533 34.0338 21.4654 34.1217C21.3775 34.2096 21.3281 34.3288 21.3281 34.4531V37.2656C21.3281 37.3899 21.3775 37.5092 21.4654 37.5971C21.5533 37.685 21.6726 37.7344 21.7969 37.7344H28.125V44.0625C28.125 44.1868 28.1744 44.306 28.2623 44.394C28.3502 44.4819 28.4694 44.5312 28.5938 44.5312H31.4062C31.5306 44.5312 31.6498 44.4819 31.7377 44.394C31.8256 44.306 31.875 44.1868 31.875 44.0625V37.7344H38.2031C38.3274 37.7344 38.4467 37.685 38.5346 37.5971C38.6225 37.5092 38.6719 37.3899 38.6719 37.2656V34.4531C38.6719 34.3288 38.6225 34.2096 38.5346 34.1217C38.4467 34.0338 38.3274 33.9844 38.2031 33.9844H31.875V27.6562C31.875 27.5319 31.8256 27.4127 31.7377 27.3248C31.6498 27.2369 31.5306 27.1875 31.4062 27.1875H28.5938C28.4694 27.1875 28.3502 27.2369 28.2623 27.3248C28.1744 27.4127 28.125 27.5319 28.125 27.6562V33.9844ZM50.0742 16.916C50.4258 17.2676 50.625 17.7422 50.625 18.2402V54.375C50.625 55.4121 49.7871 56.25 48.75 56.25H11.25C10.2129 56.25 9.375 55.4121 9.375 54.375V5.625C9.375 4.58789 10.2129 3.75 11.25 3.75H36.1348C36.6328 3.75 37.1133 3.94922 37.4648 4.30078L50.0742 16.916ZM46.3008 19.1016L35.2734 8.07422V19.1016H46.3008Z" fill="#F2F2F2"></path>
</svg>
