<svg width="60" height="60" fill="none" xmlns="http://www.w3.org/2000/svg"><path d="M28.125 33.984h-6.328a.469.469 0 0 0-.469.47v2.812a.469.469 0 0 0 .469.468h6.328v6.328a.47.47 0 0 0 .469.47h2.812a.469.469 0 0 0 .469-.47v-6.328h6.328a.469.469 0 0 0 .469-.468v-2.813a.469.469 0 0 0-.469-.469h-6.328v-6.328a.469.469 0 0 0-.469-.468h-2.812a.469.469 0 0 0-.469.468v6.328Zm21.95-17.068c.35.352.55.826.55 1.324v36.135a1.873 1.873 0 0 1-1.875 1.875h-37.5a1.873 1.873 0 0 1-1.875-1.875V5.625c0-1.037.838-1.875 1.875-1.875h24.885c.498 0 .978.2 1.33.55l12.61 12.616ZM46.3 19.102 35.273 8.074v11.028h11.028Z" fill="#F2F2F2"/></svg>