<svg width="60" height="60" fill="none" xmlns="http://www.w3.org/2000/svg"><path d="m52.342 17.186-9.527-9.528a3.752 3.752 0 0 0-2.655-1.096H8.438a1.873 1.873 0 0 0-1.876 1.875v43.126c0 1.037.838 1.874 1.875 1.874h43.126a1.873 1.873 0 0 0 1.874-1.874V19.834c0-.996-.392-1.945-1.095-2.648ZM22.5 10.313h15v6.562h-15v-6.563Zm7.5 32.46a8.44 8.44 0 0 1-8.438-8.437A8.44 8.44 0 0 1 30 25.898a8.44 8.44 0 0 1 8.438 8.438A8.44 8.44 0 0 1 30 42.773Zm0-13.125a4.686 4.686 0 0 0-4.688 4.688A4.686 4.686 0 0 0 30 39.023a4.686 4.686 0 0 0 4.688-4.687A4.686 4.686 0 0 0 30 29.648Z" fill="#fff"/></svg>