<svg width="60" height="60" viewBox="0 0 60 60" fill="none" xmlns="http://www.w3.org/2000/svg">
<path d="M52.3418 17.1855L42.8145 7.6582C42.1113 6.95508 41.1562 6.5625 40.1602 6.5625H8.4375C7.40039 6.5625 6.5625 7.40039 6.5625 8.4375V51.5625C6.5625 52.5996 7.40039 53.4375 8.4375 53.4375H51.5625C52.5996 53.4375 53.4375 52.5996 53.4375 51.5625V19.834C53.4375 18.8379 53.0449 17.8887 52.3418 17.1855ZM22.5 10.3125H37.5V16.875H22.5V10.3125ZM30 42.7734C25.3418 42.7734 21.5625 38.9941 21.5625 34.3359C21.5625 29.6777 25.3418 25.8984 30 25.8984C34.6582 25.8984 38.4375 29.6777 38.4375 34.3359C38.4375 38.9941 34.6582 42.7734 30 42.7734ZM30 29.6484C27.4102 29.6484 25.3125 31.7461 25.3125 34.3359C25.3125 36.9258 27.4102 39.0234 30 39.0234C32.5898 39.0234 34.6875 36.9258 34.6875 34.3359C34.6875 31.7461 32.5898 29.6484 30 29.6484Z" fill="white"></path>
</svg>
