<svg width="105" height="33" fill="none" xmlns="http://www.w3.org/2000/svg"><path fill="#fff" d="M1 21h100v12H1z"/><path d="M1 26V9.133C1 4.088 5.063 0 10.074 0h84.848C99.937 0 104 4.088 104 9.133V26" fill="#fff"/><path d="M1 26V9.133C1 4.088 5.063 0 10.074 0h84.848C99.937 0 104 4.088 104 9.133V26" stroke="#231815" stroke-miterlimit="10"/><path d="M25.164 6.619 20.37 19.577h-1.67L14 6.619h1.686l3.598 10.28a3.6 3.6 0 0 1 .154.514c.041.195.077.4.108.617h.036c.027-.19.065-.38.113-.566.052-.195.113-.395.185-.601l3.66-10.255 1.624.01ZM27.585 8.11a1.028 1.028 0 0 1-.756-.304 1.052 1.052 0 0 1 0-1.49 1.1 1.1 0 0 1 1.542 0 1.054 1.054 0 0 1-.36 1.726c-.136.052-.281.075-.426.067Zm.725 11.467h-1.48v-9.252h1.48v9.252ZM38.745 15.285h-6.539a3.475 3.475 0 0 0 .828 2.405 2.87 2.87 0 0 0 2.215.833 4.442 4.442 0 0 0 1.254-.185c.441-.135.859-.336 1.24-.596l.688 1.059a6.043 6.043 0 0 1-1.573.75 5.922 5.922 0 0 1-1.727.237 4.267 4.267 0 0 1-3.27-1.265 4.893 4.893 0 0 1-1.181-3.474 5.227 5.227 0 0 1 1.177-3.599 3.895 3.895 0 0 1 3.084-1.362 3.465 3.465 0 0 1 2.806 1.177 4.888 4.888 0 0 1 .998 3.264v.756Zm-1.542-1.213a3.028 3.028 0 0 0-.622-2 2.112 2.112 0 0 0-1.692-.72 2.46 2.46 0 0 0-1.794.736 3.347 3.347 0 0 0-.899 1.984h5.007ZM52.643 10.325l-2.775 9.252h-1.543l-1.907-6.641a2.73 2.73 0 0 1-.097-.432c0-.118 0-.252-.041-.411h-.036a2.057 2.057 0 0 1-.062.406 7.88 7.88 0 0 1-.128.437l-2.056 6.64h-1.48l-2.802-9.251h1.542l1.917 6.954c.034.12.06.242.077.365 0 .139.036.293.046.468h.072c0-.134.031-.267.057-.411a3.6 3.6 0 0 1 .108-.437l2.133-6.94h1.357l1.912 6.976c.033.123.06.249.077.375 0 .134.041.288.062.452h.072c.006-.129.022-.258.046-.385.031-.139.062-.288.108-.442l1.876-6.975h1.465ZM55.876 18.24h-.036v5.593h-1.48V10.325h1.48v1.624h.036a3.84 3.84 0 0 1 1.352-1.383 3.629 3.629 0 0 1 1.845-.457 3.387 3.387 0 0 1 2.796 1.218 5.14 5.14 0 0 1 1.028 3.33 5.716 5.716 0 0 1-1.13 3.717 3.758 3.758 0 0 1-3.085 1.398 3.197 3.197 0 0 1-1.593-.39 3.31 3.31 0 0 1-1.213-1.142Zm-.036-3.731v1.29a2.77 2.77 0 0 0 .745 1.948 2.67 2.67 0 0 0 4.02-.252c.554-.848.82-1.852.76-2.863a3.732 3.732 0 0 0-.709-2.42 2.363 2.363 0 0 0-1.938-.88 2.623 2.623 0 0 0-2.056.9 3.306 3.306 0 0 0-.822 2.277ZM69.107 19.793a4.302 4.302 0 0 1-3.28-1.27 4.817 4.817 0 0 1-1.223-3.438 5.023 5.023 0 0 1 1.265-3.634 4.595 4.595 0 0 1 3.474-1.342 4.112 4.112 0 0 1 3.228 1.27 5.074 5.074 0 0 1 1.142 3.546 4.986 4.986 0 0 1-1.25 3.552 4.4 4.4 0 0 1-3.356 1.316Zm.108-1.249a2.704 2.704 0 0 0 2.21-.935 4.036 4.036 0 0 0 .771-2.643 4.113 4.113 0 0 0-.796-2.677 2.714 2.714 0 0 0-2.206-.936 2.818 2.818 0 0 0-2.261.977 3.989 3.989 0 0 0-.828 2.672c-.054.94.245 1.866.838 2.596a2.858 2.858 0 0 0 2.272.925v.021ZM80.651 11.59c-.099-.033-.2-.059-.303-.078-.114-.009-.23-.009-.344 0a2.056 2.056 0 0 0-1.779.962 4.179 4.179 0 0 0-.658 2.385v4.718h-1.48v-9.252h1.48v1.835h.036a3.032 3.032 0 0 1 .967-1.49c.426-.34.956-.521 1.5-.515.159 0 .316.008.473.026.12.017.236.045.35.082l-.242 1.326ZM86.923 19.469a3.961 3.961 0 0 1-1.573.303 2.283 2.283 0 0 1-1.727-.642 2.632 2.632 0 0 1-.632-1.912v-5.629h-1.589v-1.264h1.589V8.063l1.485-.478v2.74h2.344v1.264h-2.328v5.459a1.83 1.83 0 0 0 .282 1.146 1.03 1.03 0 0 0 .853.35c.174 0 .346-.021.514-.062.147-.035.29-.084.427-.144l.355 1.13Z" fill="#000"/></svg>