<svg width="105" height="33" viewBox="0 0 105 33" fill="none" xmlns="http://www.w3.org/2000/svg">
<rect x="1" y="21" width="100" height="12" fill="white"></rect>
<path d="M1 26V9.13347C1 4.08792 5.06295 0 10.0736 0H94.9217C99.937 0 104 4.08792 104 9.13347V26" fill="white"></path>
<path d="M1 26V9.13347C1 4.08792 5.06295 0 10.0736 0H94.9217C99.937 0 104 4.08792 104 9.13347V26" stroke="#231815" stroke-miterlimit="10"></path>
<path d="M25.1644 6.61868L20.3686 19.5769H18.6981L14 6.61868H15.686L19.284 16.8989C19.3482 17.0662 19.3997 17.238 19.4383 17.4129C19.4794 17.6083 19.5154 17.8139 19.5462 18.0297H19.5822C19.609 17.8393 19.6467 17.6505 19.6953 17.4643C19.7467 17.269 19.8083 17.0685 19.8803 16.8629L23.5401 6.6084L25.1644 6.61868Z" fill="black"></path>
<path d="M27.585 8.10935C27.445 8.11292 27.3058 8.08786 27.1759 8.03571C27.0459 7.98356 26.928 7.90542 26.8294 7.80608C26.7314 7.70823 26.6538 7.59204 26.6008 7.46415C26.5478 7.33627 26.5205 7.1992 26.5205 7.06077C26.5205 6.92234 26.5478 6.78526 26.6008 6.65738C26.6538 6.52949 26.7314 6.4133 26.8294 6.31545C27.0351 6.11328 27.312 6 27.6004 6C27.8888 6 28.1657 6.11328 28.3714 6.31545C28.4693 6.4133 28.547 6.52949 28.6 6.65738C28.653 6.78526 28.6803 6.92234 28.6803 7.06077C28.6803 7.1992 28.653 7.33627 28.6 7.46415C28.547 7.59204 28.4693 7.70823 28.3714 7.80608C28.2692 7.90933 28.1462 7.98975 28.0107 8.04202C27.8751 8.0943 27.73 8.11724 27.585 8.10935V8.10935ZM28.3097 19.577H26.8294V10.3247H28.3097V19.577Z" fill="black"></path>
<path d="M38.7445 15.2849H32.2063C32.1682 16.1626 32.4638 17.0221 33.0339 17.6905C33.3228 17.9787 33.6698 18.202 34.0518 18.3455C34.4338 18.4891 34.842 18.5497 35.2493 18.5232C35.674 18.5218 36.0964 18.4595 36.5034 18.3382C36.9441 18.2031 37.3618 18.0021 37.7422 17.7419L38.431 18.8008C37.9457 19.1256 37.4159 19.3784 36.8581 19.5512C36.2972 19.7148 35.7152 19.7945 35.131 19.7877C34.5277 19.8204 33.9242 19.7247 33.3606 19.5067C32.797 19.2887 32.2862 18.9535 31.8619 18.5232C31.0319 17.5622 30.608 16.3162 30.6797 15.0485C30.6087 13.7442 31.0287 12.4606 31.8568 11.4504C32.236 11.0069 32.71 10.6542 33.2438 10.4185C33.7777 10.1827 34.3576 10.0699 34.9409 10.0883C35.4674 10.0579 35.9939 10.1482 36.4803 10.3521C36.9666 10.5561 37.4 10.8685 37.7474 11.2654C38.4611 12.1982 38.8151 13.3569 38.7445 14.5293V15.2849ZM37.2025 14.0719C37.2396 13.3526 37.0191 12.6437 36.5806 12.0724C36.3711 11.8328 36.1102 11.6436 35.8173 11.519C35.5245 11.3944 35.2073 11.3376 34.8894 11.3527C34.5562 11.3472 34.2253 11.4095 33.9169 11.5358C33.6085 11.6622 33.3291 11.85 33.0955 12.0878C32.5828 12.6303 32.2662 13.3287 32.196 14.0719H37.2025Z" fill="black"></path>
<path d="M52.6432 10.3247L49.8676 19.5769H48.3255L46.4185 12.9359C46.3743 12.7948 46.3417 12.6504 46.3209 12.5041C46.3209 12.3859 46.3209 12.2523 46.2798 12.0929H46.2438C46.2368 12.23 46.2162 12.366 46.1821 12.499C46.1513 12.6172 46.1101 12.7611 46.0536 12.9359L43.9975 19.5769H42.5172L39.7158 10.3247H41.2579L43.1751 17.2793C43.2094 17.399 43.2352 17.5209 43.2522 17.6442C43.2522 17.783 43.2882 17.9372 43.2985 18.112H43.3705C43.3705 17.9783 43.4013 17.8447 43.427 17.7008C43.4538 17.553 43.4899 17.4071 43.5349 17.2639L45.6681 10.3247H47.0251L48.9372 17.2998C48.9703 17.4233 48.9961 17.5486 49.0143 17.6751C49.0143 17.8087 49.0554 17.9629 49.076 18.1274H49.1479C49.1544 17.998 49.1699 17.8692 49.1942 17.7419C49.225 17.6031 49.2559 17.4541 49.3022 17.2998L51.1783 10.3247H52.6432Z" fill="black"></path>
<path d="M55.8757 18.2405H55.8397V23.833H54.3594V10.3247H55.8397V11.949H55.8757C56.201 11.3803 56.6664 10.9043 57.2275 10.5663C57.7911 10.2526 58.428 10.0946 59.0728 10.1089C59.6017 10.0791 60.1302 10.1739 60.6158 10.3854C61.1015 10.597 61.5307 10.9195 61.8691 11.3271C62.5892 12.2837 62.9528 13.4617 62.8971 14.6579C62.9656 15.9907 62.5655 17.3054 61.7663 18.3742C61.3975 18.8323 60.9263 19.1975 60.3907 19.4403C59.855 19.6832 59.2698 19.7969 58.6822 19.7723C58.1261 19.7829 57.5769 19.6482 57.0888 19.3816C56.5938 19.1109 56.1762 18.7181 55.8757 18.2405V18.2405ZM55.8397 14.5088V15.799C55.8249 16.5206 56.0923 17.2196 56.585 17.7471C56.853 18.019 57.1762 18.2303 57.5328 18.3667C57.8894 18.503 58.2712 18.5612 58.6522 18.5373C59.0333 18.5134 59.4048 18.408 59.7416 18.2283C60.0784 18.0485 60.3727 17.7985 60.6046 17.4952C61.1586 16.6471 61.4253 15.6434 61.3653 14.6322C61.4171 13.7673 61.1663 12.9113 60.656 12.2112C60.4242 11.9234 60.1281 11.694 59.7916 11.5414C59.455 11.3887 59.0874 11.3171 58.7182 11.3322C58.3303 11.3206 57.9446 11.3953 57.589 11.5508C57.2335 11.7064 56.9169 11.9389 56.6621 12.2317C56.1099 12.8594 55.816 13.6731 55.8397 14.5088V14.5088Z" fill="black"></path>
<path d="M69.107 19.7931C68.5018 19.8244 67.8968 19.7275 67.3316 19.5087C66.7665 19.2899 66.254 18.9542 65.8276 18.5235C64.9845 17.5821 64.5451 16.3471 64.6042 15.0848C64.5658 14.4256 64.6576 13.7654 64.8746 13.1418C65.0916 12.5182 65.4294 11.9436 65.8687 11.4507C66.3222 10.9969 66.8656 10.6431 67.464 10.4121C68.0625 10.181 68.7027 10.0778 69.3434 10.1091C69.9415 10.0728 70.5402 10.1676 71.0978 10.3869C71.6554 10.6062 72.1583 10.9447 72.5714 11.3787C73.3878 12.3735 73.7957 13.6413 73.7125 14.9254C73.7764 16.2271 73.328 17.502 72.4635 18.4772C72.0286 18.9212 71.5047 19.2679 70.9262 19.4947C70.3476 19.7215 69.7276 19.8232 69.107 19.7931V19.7931ZM69.2149 18.5441C69.6305 18.5688 70.0461 18.4973 70.4295 18.335C70.8129 18.1727 71.1536 17.9241 71.4252 17.6086C71.9838 16.8455 72.2567 15.9104 72.1962 14.9665C72.2513 14.0082 71.9694 13.0609 71.3995 12.2885C71.128 11.9743 70.788 11.7265 70.4057 11.5644C70.0234 11.4022 69.609 11.3299 69.1943 11.353C68.768 11.3339 68.3429 11.4118 67.9511 11.581C67.5593 11.7502 67.2111 12.0062 66.9327 12.3297C66.3432 13.0915 66.0492 14.0409 66.1052 15.0025C66.0509 15.942 66.3498 16.8678 66.943 17.5983C67.2292 17.9115 67.5816 18.157 67.9746 18.3171C68.3676 18.4771 68.7913 18.5476 69.2149 18.5235V18.5441Z" fill="black"></path>
<path d="M80.6514 11.5895C80.5521 11.5572 80.4508 11.5315 80.3481 11.5124C80.2335 11.5033 80.1183 11.5033 80.0037 11.5124C79.6496 11.5059 79.2997 11.591 78.9882 11.7594C78.6766 11.9278 78.4138 12.1738 78.2252 12.4736C77.7702 13.184 77.5408 14.0155 77.5673 14.8587V19.5773H76.0869V10.3251H77.5673V12.1601H77.6033C77.7694 11.5779 78.1059 11.0587 78.5696 10.6695C78.9958 10.3304 79.5259 10.1488 80.0705 10.1554C80.2285 10.1547 80.3864 10.1633 80.5434 10.1812C80.6621 10.1983 80.7791 10.2258 80.8929 10.2634L80.6514 11.5895Z" fill="black"></path>
<path d="M86.9229 19.4689C86.6824 19.5686 86.4328 19.6444 86.1775 19.6951C85.9051 19.7494 85.6278 19.7752 85.35 19.7722C85.0332 19.791 84.7161 19.7436 84.4187 19.633C84.1213 19.5224 83.8503 19.3509 83.6229 19.1297C83.167 18.6013 82.9395 17.9135 82.9906 17.2175V11.5891H81.4023V10.3246H82.9906V8.06299L84.4761 7.58496V10.3246H86.82V11.5891H84.4916V17.0479C84.4566 17.4507 84.556 17.8538 84.7743 18.1942C84.8795 18.3148 85.0114 18.4093 85.1595 18.47C85.3076 18.5306 85.4679 18.5559 85.6275 18.5437C85.8007 18.5433 85.9732 18.5226 86.1415 18.482C86.2877 18.4466 86.4305 18.3985 86.5682 18.3381L86.9229 19.4689Z" fill="black"></path>

</svg>
